<svg xmlns="http://www.w3.org/2000/svg" viewBox="0 0 100 100" fill="none">
  <path d="M15 85 L20 55 L10 30 L25 40 L30 20 L40 45 L50 38 L60 45 L70 20 L75 40 L90 30 L80 55 L85 85 L65 75 L60 90 L50 78 L40 90 L35 75 Z" fill="#E8F020"/>
  <path d="M30 20 L25 5 L38 28 Z" fill="#E8F020"/>
  <path d="M70 20 L75 5 L62 28 Z" fill="#E8F020"/>
  <ellipse cx="38" cy="52" rx="4" ry="5" fill="#0a0a0a"/>
  <ellipse cx="62" cy="52" rx="4" ry="5" fill="#0a0a0a"/>
  <circle cx="37" cy="51" r="1.5" fill="#E8F020"/>
  <circle cx="61" cy="51" r="1.5" fill="#E8F020"/>
  <ellipse cx="50" cy="63" rx="5" ry="3.5" fill="#0a0a0a"/>
  <path d="M45 66 Q50 72 55 66" stroke="#0a0a0a" stroke-width="1.5" fill="none"/>
</svg>
